<?xml version="1.0" standalone="no"?>
<!DOCTYPE svg PUBLIC "-//W3C//DTD SVG 20010904//EN"
 "http://www.w3.org/TR/2001/REC-SVG-20010904/DTD/svg10.dtd">
<svg version="1.0" xmlns="http://www.w3.org/2000/svg"
 width="1076.000000pt" height="1076.000000pt" viewBox="0 0 1076.000000 1076.000000"
 preserveAspectRatio="xMidYMid meet">
<metadata>
Created by potrace 1.14, written by Peter Selinger 2001-2017
</metadata>
<g transform="translate(0.000000,1076.000000) scale(0.100000,-0.100000)"
fill="#000000" stroke="none">
<path d="M5098 10755 c-2 -2 -48 -6 -103 -9 -55 -3 -120 -8 -145 -11 -156 -19
-225 -28 -300 -40 -47 -8 -98 -16 -115 -18 -300 -46 -855 -211 -1150 -342 -16
-7 -59 -26 -95 -41 -133 -57 -452 -222 -550 -284 -8 -5 -35 -21 -60 -36 -359
-215 -728 -509 -1046 -834 -201 -206 -270 -287 -502 -590 -52 -68 -252 -374
-303 -465 -69 -122 -104 -188 -141 -260 -22 -44 -44 -87 -49 -95 -27 -45 -171
-385 -199 -470 -5 -14 -20 -56 -35 -95 -45 -119 -121 -379 -158 -540 -54 -231
-95 -460 -112 -640 -3 -27 -7 -63 -10 -80 -26 -174 -26 -877 0 -1048 2 -12 6
-49 10 -82 7 -67 33 -254 42 -300 3 -16 7 -41 8 -53 2 -13 8 -45 14 -70 6 -26
22 -99 36 -162 13 -63 38 -164 55 -225 17 -60 32 -117 35 -125 19 -75 147
-437 175 -495 5 -11 30 -69 56 -130 52 -125 211 -436 273 -537 22 -37 41 -70
41 -73 0 -3 8 -18 19 -33 10 -15 57 -85 103 -157 47 -71 121 -177 164 -235 96
-129 86 -116 131 -171 21 -25 56 -68 78 -95 137 -167 416 -451 585 -594 33
-28 105 -89 144 -121 170 -143 481 -355 726 -494 400 -229 914 -436 1340 -541
59 -14 281 -63 305 -67 350 -58 420 -67 625 -84 187 -14 812 -7 905 11 11 2
52 7 90 10 39 4 97 11 130 16 33 5 78 12 100 16 103 15 318 57 390 75 44 12
87 22 96 24 75 15 477 138 534 164 11 5 85 35 165 67 264 104 556 251 775 387
249 155 563 381 671 482 12 11 45 40 74 65 160 137 366 343 510 510 36 41 67
77 70 80 3 3 23 28 45 55 21 28 42 52 45 55 32 30 281 382 350 495 13 22 35
58 49 80 179 296 349 659 471 1006 40 114 117 368 135 445 2 10 12 48 20 84 9
36 19 76 21 90 2 14 7 36 10 50 4 14 8 34 10 45 2 11 10 56 18 100 18 96 43
268 51 350 4 33 8 70 10 82 31 196 25 881 -10 1138 -2 17 -7 53 -10 80 -6 51
-21 146 -30 200 -27 155 -41 222 -76 365 -75 310 -203 692 -304 905 -12 28
-36 79 -53 115 -67 148 -165 331 -261 492 -86 144 -268 410 -370 538 -28 36
-54 70 -58 75 -5 6 -24 29 -43 51 -19 22 -47 55 -62 73 -75 93 -251 275 -405
421 -443 418 -981 767 -1578 1026 -30 12 -138 55 -225 89 -109 42 -456 150
-548 170 -9 2 -75 17 -147 34 -145 34 -317 65 -445 81 -47 5 -94 12 -106 14
-11 2 -56 7 -100 11 -43 3 -101 8 -129 11 -57 6 -672 14 -677 9z"/>
</g>
</svg>
