<svg xmlns="http://www.w3.org/2000/svg" viewBox="0 0 3840 2160"><g transform="
          rotate(0 1920 1080) 
          translate(-0 -0)
          scale(1)
        "><rect width="3840" height="2160" fill="rgb(80, 48, 255)"></rect><g transform="translate(0, 0)"><path fill="rgb(67, 36, 227)" fill-opacity="1" d="M0,529.415L91.429,525.113C182.857,520.81,365.714,512.206,548.571,510.872C731.429,509.538,914.286,515.475,1097.143,516.142C1280,516.81,1462.857,512.208,1645.714,454.775C1828.571,397.341,2011.429,287.075,2194.286,277.762C2377.143,268.45,2560,360.091,2742.857,332.004C2925.714,303.917,3108.571,156.103,3291.429,147.721C3474.286,139.338,3657.143,270.387,3748.571,335.911L3840,401.435L3840,2160L3748.571,2160C3657.143,2160,3474.286,2160,3291.429,2160C3108.571,2160,2925.714,2160,2742.857,2160C2560,2160,2377.143,2160,2194.286,2160C2011.429,2160,1828.571,2160,1645.714,2160C1462.857,2160,1280,2160,1097.143,2160C914.286,2160,731.429,2160,548.571,2160C365.714,2160,182.857,2160,91.429,2160L0,2160Z"></path></g><g transform="translate(0, 540)"><path fill="rgb(53, 24, 199)" fill-opacity="1" d="M0,204.14L91.429,176.151C182.857,148.161,365.714,92.183,548.571,121.078C731.429,149.974,914.286,263.743,1097.143,284.257C1280,304.771,1462.857,232.03,1645.714,195.621C1828.571,159.212,2011.429,159.135,2194.286,211.911C2377.143,264.687,2560,370.316,2742.857,427.046C2925.714,483.776,3108.571,491.608,3291.429,427.012C3474.286,362.417,3657.143,225.394,3748.571,156.883L3840,88.372L3840,1620L3748.571,1620C3657.143,1620,3474.286,1620,3291.429,1620C3108.571,1620,2925.714,1620,2742.857,1620C2560,1620,2377.143,1620,2194.286,1620C2011.429,1620,1828.571,1620,1645.714,1620C1462.857,1620,1280,1620,1097.143,1620C914.286,1620,731.429,1620,548.571,1620C365.714,1620,182.857,1620,91.429,1620L0,1620Z"></path></g><g transform="translate(0, 1080)"><path fill="rgb(40, 12, 171)" fill-opacity="1" d="M0,160.681L91.429,201.461C182.857,242.24,365.714,323.799,548.571,381.495C731.429,439.191,914.286,473.025,1097.143,450.772C1280,428.518,1462.857,350.178,1645.714,270.469C1828.571,190.761,2011.429,109.684,2194.286,65.047C2377.143,20.41,2560,12.212,2742.857,61.618C2925.714,111.025,3108.571,218.037,3291.429,251.673C3474.286,285.309,3657.143,245.57,3748.571,225.701L3840,205.831L3840,1080L3748.571,1080C3657.143,1080,3474.286,1080,3291.429,1080C3108.571,1080,2925.714,1080,2742.857,1080C2560,1080,2377.143,1080,2194.286,1080C2011.429,1080,1828.571,1080,1645.714,1080C1462.857,1080,1280,1080,1097.143,1080C914.286,1080,731.429,1080,548.571,1080C365.714,1080,182.857,1080,91.429,1080L0,1080Z"></path></g><g transform="translate(0, 1620)"><path fill="rgb(26, 0, 143)" fill-opacity="1" d="M0,77.225L91.429,86.948C182.857,96.672,365.714,116.118,548.571,129.912C731.429,143.706,914.286,151.848,1097.143,199.584C1280,247.32,1462.857,334.652,1645.714,394.125C1828.571,453.598,2011.429,485.214,2194.286,504.177C2377.143,523.141,2560,529.453,2742.857,492.936C2925.714,456.419,3108.571,377.072,3291.429,313.942C3474.286,250.812,3657.143,203.9,3748.571,180.443L3840,156.987L3840,540L3748.571,540C3657.143,540,3474.286,540,3291.429,540C3108.571,540,2925.714,540,2742.857,540C2560,540,2377.143,540,2194.286,540C2011.429,540,1828.571,540,1645.714,540C1462.857,540,1280,540,1097.143,540C914.286,540,731.429,540,548.571,540C365.714,540,182.857,540,91.429,540L0,540Z"></path></g></g></svg>